PathFileType	4	(X/Y/Z)	Patient4_TMGait_0pt3_01_left_16.trc.trc
DataRate	CameraRate	NumFrames	NumMarkers	Units	OrigDataRate	OrigDataStartFrame	OrigNumFrames
50.909090909091	50.909090909091	4	33	mm	50.909090909091	53	       141
Frame#	Time	Sacral			L.Shoulder			Chest			R.Shoulder			Neck			R.ASIS			L.ASIS			R.Thigh.Superior			R.Thigh.Lateral			R.Thigh.Inferior			R.Patella			L.Thigh.Superior			L.Thigh.Lateral			L.Thigh.Inferior			L.Patella			L.Shank.Superior			L.Shank.Lateral			L.Shank.Inferior			R.Shank.Superior			R.Shank.Lateral			R.Shank.Inferior			R.Heel			R.Midfoot.Superior			R.Midfoot.Lateral			R.Toe			L.Heel			L.Midfoot.Lateral			L.Midfoot.Superior			L.Toe			L.Elbow			L.Wrist			R.Elbow			R.Wrist			
		X1	Y1	Z1	X2	Y2	Z2	X3	Y3	Z3	X4	Y4	Z4	X5	Y5	Z5	X6	Y6	Z6	X7	Y7	Z7	X8	Y8	Z8	X9	Y9	Z9	X10	Y10	Z10	X11	Y11	Z11	X12	Y12	Z12	X13	Y13	Z13	X14	Y14	Z14	X15	Y15	Z15	X16	Y16	Z16	X17	Y17	Z17	X18	Y18	Z18	X19	Y19	Z19	X20	Y20	Z20	X21	Y21	Z21	X22	Y22	Z22	X23	Y23	Z23	X24	Y24	Z24	X25	Y25	Z25	X26	Y26	Z26	X27	Y27	Z27	X28	Y28	Z28	X29	Y29	Z29	X30	Y30	Z30	X31	Y31	Z31	X32	Y32	Z32	X33	Y33	Z33	

53	30.641428571429	801.952838205259	985.730804773592	474.022969108333	953.895422494787	1429.666668398093	309.196387657671	1057.740876314658	1362.932217446338	470.811699219600	966.510279353787	1425.066702463604	644.657043589911	929.386975200622	1485.616117366619	469.202531971697	1032.154762042283	930.968261638696	593.304666443431	1025.544492150275	961.207364190394	318.690991238715	1088.031564631498	734.213911890129	572.568114745460	1017.343232904594	621.423198934763	639.929029275812	1103.244989226851	566.388015644605	566.593333242717	1098.584634253880	454.630012381024	591.689636328273	1087.578260622031	751.273108001451	357.400229797024	1013.421321034761	623.768799683702	300.713621820410	1102.918616646362	556.117198681209	369.419825214001	1108.052788166751	483.339502170756	380.387486221901	1073.956162558089	407.395342930402	377.206172576047	976.234732097110	297.839129910246	329.467356152533	1015.212459110929	187.171197377807	407.103788385772	1014.972382839968	390.610668347112	597.125230731021	887.084549857173	363.149247917093	650.629618309114	869.678798971595	252.143118142793	605.021801121656	665.705984482146	198.736491482596	562.432869410152	828.603580268077	138.439901541466	623.893098592336	715.901206576274	143.712338830347	645.413341724861	886.682393437174	32.484841350907	663.586922556585	875.883120664387	37.874383168436	452.224653784112	950.192940935834	35.737932778241	371.665084778542	1034.092459845318	95.906924878669	399.613350175356	1162.048079502718	43.956366161637	371.529862725416	1023.960169171630	1092.264956900353	171.258737974132	1191.347386897343	892.086677144569	164.028220660987	1011.617538699927	1072.878947479107	750.637727710551	1188.331599550188	883.168102153852	764.201881434298	
54	30.661071428571	800.567255883192	983.596402701455	469.941384816286	956.745710037519	1428.252680819801	307.911176230807	1057.670785512953	1360.660866695936	471.002623297214	963.851394341220	1422.053532368393	643.764702769934	929.914332546704	1483.874587417209	467.983083948411	1030.089641302092	929.569738037100	591.528361823230	1025.924879450901	959.595464762863	316.733868493680	1091.475571579298	735.900224600965	570.460901448660	1024.177128390484	621.542340958877	637.913758465178	1111.890824246227	568.487619359335	564.730843094032	1109.421147320297	455.871801522517	590.110721910967	1088.047037100310	749.774413827481	355.900698285056	1014.509373270904	621.998936764763	299.310876013186	1103.589845735429	554.595372663425	368.923024247013	1108.700321555265	481.574405534915	380.127828148747	1073.466218267204	405.427748402697	377.086447432906	974.566679248595	297.009302013946	329.104252707867	1011.111255247326	186.013384161297	407.190331660606	1025.000604251653	391.623751444900	595.329685978253	895.953756570634	366.209750970042	647.797309752324	877.273133107109	255.229440923925	602.677323716021	672.888306101821	205.117263383186	558.449497928545	834.482672684651	142.036046277116	621.741889437620	721.378727878324	149.308863231000	642.139899871762	890.308401775247	32.985067358313	662.503885446986	870.009257027212	37.878649610337	452.139522248448	944.335958412092	35.743547643509	371.602502027903	1028.312374326245	95.742859304701	399.713877708207	1156.222519581860	43.712393620863	371.487722604501	1032.990557612346	1092.766427768116	168.957671886968	1207.477129826101	898.490562157390	163.478917701519	992.761509802656	1067.496428795859	747.717781750102	1151.067278053132	862.113839637569	763.019752984865	
55	30.680714285714	799.210554412118	981.912967506305	466.142383847259	959.789057807825	1427.149833650451	306.970517758351	1057.687657696051	1358.667033661558	471.514482399328	961.226543415725	1419.362906739115	643.093075904671	930.580588425135	1482.444919631675	467.077440483986	1027.937682392577	928.491870933338	590.078853886046	1026.075518797642	958.107943047944	315.189816982019	1094.340727214182	737.948690208481	568.617523865948	1030.351753933482	622.160424944504	636.139519499094	1119.648790492509	571.083225622342	563.014547370748	1119.489186434703	457.833380130636	588.602361411605	1088.216977776416	748.348148024461	354.727679955767	1015.092547979339	620.381152471419	298.249289490402	1103.622809285094	553.127949150516	368.784194748650	1108.640630400766	479.925677065837	380.235388821631	1072.380237928963	403.652947902799	377.238115167866	972.531483453016	296.252477064987	328.919677398046	1006.811458461299	184.961480491730	407.367308906778	1034.745720342343	393.023962285956	593.702460223402	904.872118377870	368.591211504259	645.220205912444	885.743790803276	257.550045309867	600.542422066634	681.297770290754	208.721001667787	554.957116757948	842.212121743620	144.719196178587	619.755648204587	728.801387665092	152.753382408770	639.271420916808	897.010208509620	33.702009064036	661.492872328414	864.120951360686	37.887826088209	452.059555688766	938.474700431616	35.756430413331	371.550453771337	1022.523474544074	95.583546643060	399.827421049900	1150.392265877158	43.455614414494	371.448730608983	1041.562435056722	1093.462613207712	167.195438696724	1223.232756660220	905.668363034305	163.902448219882	973.277607502253	1063.256247238972	744.685565325697	1112.190655991463	844.195090816405	761.176877311443	
56	30.700357142857	797.926511109665	980.826898981033	462.619810255476	963.037982011529	1426.492470087891	306.377210143387	1057.802171544159	1357.090761674425	472.344815807186	958.640261464031	1417.154760031159	642.623144360013	931.376413293032	1481.443862962971	466.472532130496	1025.701302644487	927.848965981504	588.967388463936	1026.074316752131	956.868276012199	314.077790106798	1096.533223338065	740.372006910920	567.036620690726	1035.745143942509	623.319135004801	634.626377115358	1126.325508215018	574.162070961458	561.422082288889	1128.587537806070	460.533095702721	587.189803126377	1088.028717610028	747.039893247121	353.881699923879	1015.019336515452	619.013960791873	297.508290608812	1102.845369524191	551.763907712671	368.940338290569	1107.665632117245	478.456584809641	380.642871542411	1070.527866287942	402.147442762531	377.594147291899	969.980764473534	295.603989884515	328.861808915007	1002.252106720300	184.062671154261	407.595352470127	1044.065362953590	394.818139451343	592.303278243287	913.754580840786	370.179532153379	643.008797204047	895.126241215922	258.968477952928	598.754230717831	691.039503923503	209.229542473754	552.150146034697	851.955940191304	146.322973613294	618.136016285389	738.323578516994	153.784976081630	637.006831193039	907.036337870366	34.558669110125	660.740236040560	858.212487733185	37.901146082878	451.982891847752	932.605205980090	35.772684870857	371.505012887921	1016.718028585271	95.435415010558	399.938956717202	1144.555348642377	43.192532191115	371.414857813775	1049.675378293557	1094.495042495891	165.910852011444	1238.612956954874	913.845264912837	165.290843101495	953.324624415562	1060.397298792708	741.555887093719	1072.309636904658	829.758232843839	758.704872392730	
